<?xml version="1.0" encoding="utf-8"?>
<!-- Generator: Adobe Illustrator 26.1.0, SVG Export Plug-In . SVG Version: 6.00 Build 0)  -->
<svg version="1.1" id="Layer_1" xmlns="http://www.w3.org/2000/svg" xmlns:xlink="http://www.w3.org/1999/xlink" x="0px" y="0px"
	 viewBox="0 0 793.05 600.04" style="enable-background:new 0 0 793.05 600.04;" xml:space="preserve">
<style type="text/css">
	.st0{fill:#FFDC9A;}
	.st1{fill:#FFCA67;}
	.st2{fill:#FFA702;}
	.st3{fill-rule:evenodd;clip-rule:evenodd;fill:#FFDC9A;}
	.st4{fill-rule:evenodd;clip-rule:evenodd;fill:#FFCA67;}
	.st5{fill-rule:evenodd;clip-rule:evenodd;fill:#FFA702;}
</style>
<g>
	<path class="st3" d="M706.06,121.59l-521.94,0.01c-24.01,0-43.49,19.47-43.49,43.49c0,115.99,0,231.97,0,347.96
		c0,24.01,19.49,43.49,43.49,43.49h521.94c24.01,0,43.5-19.49,43.5-43.5l-0.01-347.95C749.55,141.09,730.07,121.59,706.06,121.59z"
		/>
	<path class="st4" d="M706.06,121.59L467.2,121.6c-6.17,9.56-12.17,19.34-17.95,29.36c-80.17,138.85-103.47,289.09-73.6,405.59
		h330.42c24.01,0,43.5-19.49,43.5-43.5l-0.01-347.95C749.55,141.09,730.07,121.59,706.06,121.59z"/>
	<path class="st5" d="M560.63,371.7H530.4c-8.23,0-14.96,6.73-14.96,14.95v13.59c0,8.23,6.72,14.96,14.96,14.96h30.23
		c8.23,0,14.96-6.73,14.96-14.96v-13.59C575.59,378.43,568.86,371.7,560.63,371.7z"/>
	<path class="st5" d="M706.06,78.1h-10.61C691,34.24,653.97,0,608.93,0H86.99C38.95,0,0,38.95,0,86.99v347.95
		c0,48.04,38.95,87,86.99,87h10.6c4.46,43.86,41.5,78.11,86.54,78.11l521.94-0.01c48.04,0,86.99-38.94,86.99-86.98V165.09
		C793.05,117.05,754.1,78.1,706.06,78.1z M706.06,121.59c24.01,0,43.49,19.5,43.49,43.5v44.86H140.63v-44.86
		c0-24.02,19.48-43.49,43.49-43.49L706.06,121.59z M97.14,478.44H86.99c-24.01,0-43.49-19.48-43.49-43.49V239.22h53.64V478.44z
		 M103.72,131.85H43.5V86.99c0-24.02,19.48-43.49,43.49-43.49l521.94-0.01c20.97,0,38.48,14.87,42.58,34.62H184.13
		C147.86,78.1,116.78,100.3,103.72,131.85z M706.06,556.55H184.13c-24.01,0-43.49-19.48-43.49-43.49V317.33h608.92l0.01,195.71
		C749.56,537.06,730.07,556.55,706.06,556.55z"/>
	<path class="st5" d="M471.94,371.7H201.82c-8.23,0-14.96,6.73-14.96,14.95v13.59c0,8.23,6.73,14.96,14.96,14.96h270.12
		c8.23,0,14.96-6.73,14.96-14.96v-13.59C486.89,378.43,480.17,371.7,471.94,371.7z"/>
	<path class="st3" d="M608.93,43.49L86.99,43.5c-24.01,0-43.49,19.47-43.49,43.49v44.86h60.22c13.06-31.55,44.14-53.74,80.4-53.74
		h467.38C647.41,58.35,629.89,43.49,608.93,43.49z"/>
	<path class="st4" d="M608.93,43.49l-82.91,0c-9.7,11.07-19.14,22.62-28.29,34.62h153.78C647.41,58.35,629.89,43.49,608.93,43.49z"
		/>
	<path class="st3" d="M43.5,434.95c0,24.01,19.49,43.49,43.49,43.49h10.15V239.22H43.5V434.95z"/>
</g>
</svg>
