<?xml version="1.0" encoding="utf-8"?>
<!-- Generator: Adobe Illustrator 26.1.0, SVG Export Plug-In . SVG Version: 6.00 Build 0)  -->
<svg version="1.1" id="Layer_1" xmlns="http://www.w3.org/2000/svg" xmlns:xlink="http://www.w3.org/1999/xlink" x="0px" y="0px"
	 viewBox="0 0 761.87 895.91" style="enable-background:new 0 0 761.87 895.91;" xml:space="preserve">
<style type="text/css">
	.st0{fill:#FFDC9A;}
	.st1{fill:#FFCA67;}
	.st2{fill:#FFA702;}
	.st3{fill-rule:evenodd;clip-rule:evenodd;fill:#FFDC9A;}
	.st4{fill-rule:evenodd;clip-rule:evenodd;fill:#FFCA67;}
	.st5{fill-rule:evenodd;clip-rule:evenodd;fill:#FFA702;}
</style>
<g>
	<path class="st0" d="M380.93,43.84c-175.81,0-318.34,142.53-318.34,318.34c0,87.91,35.63,167.5,93.24,225.11
		c57.6,57.6,137.19,93.23,225.1,93.23c87.91,0,167.5-35.64,225.11-93.23c57.59-57.6,93.23-137.2,93.23-225.11
		C699.27,186.36,556.75,43.84,380.93,43.84z"/>
	<path class="st1" d="M532.07,81.94C418.1,134.46,314.58,259.3,264.48,422.59c-23.48,76.52-32.48,152.61-28.78,222.95
		c43.54,22.36,92.91,34.98,145.23,34.98c87.91,0,167.5-35.64,225.11-93.23c57.59-57.6,93.23-137.2,93.23-225.11
		C699.27,241.06,631.64,135.75,532.07,81.94z"/>
	<path class="st0" d="M60.27,734.4l101.17-14.49c9.28-1.33,18.62,3.78,22.26,12.87l38.01,94.82l66.52-115.21
		c-62.02-16.38-117.53-48.8-161.81-92.54L60.27,734.4z"/>
	<path class="st1" d="M256.54,767.26l31.68-54.88c-16.31-4.31-32.18-9.73-47.51-16.17C244.34,720.95,249.65,744.71,256.54,767.26z"
		/>
	<path class="st1" d="M473.65,712.38l66.52,115.21l38-94.81c3.64-9.09,12.98-14.19,22.26-12.87L701.6,734.4l-66.13-114.56
		C591.18,663.58,535.67,696,473.65,712.38z"/>
	<path class="st2" d="M272.19,340.7c47.78,0,86.5-39.89,86.5-89.08c-0.01-49.21-38.71-89.1-86.49-89.1
		c-47.79,0-86.49,39.89-86.49,89.1C185.7,300.81,224.42,340.7,272.19,340.7z M272.19,207.09c23.88,0,43.26,19.94,43.26,44.53
		c0,24.6-19.38,44.54-43.25,44.54c-23.88,0-43.26-19.94-43.26-44.54C228.94,227.02,248.32,207.08,272.19,207.09z"/>
	<path class="st2" d="M540.62,171.74L190.49,521.87c-20.34,20.34,10.41,51.1,30.76,30.75l350.13-350.13
		C591.72,182.15,560.97,151.4,540.62,171.74z"/>
	<path class="st2" d="M489.68,383.67c-47.78,0-86.5,39.89-86.5,89.08c0.01,49.21,38.71,89.1,86.49,89.1
		c47.79,0,86.49-39.89,86.49-89.1C576.17,423.55,537.45,383.67,489.68,383.67z M489.68,517.28c-23.88,0-43.26-19.94-43.26-44.53
		c0-24.6,19.38-44.54,43.25-44.54c23.88,0,43.26,19.94,43.26,44.54C532.93,497.34,513.55,517.28,489.68,517.28z"/>
	<path class="st2" d="M664.68,587.29c49.1-61.81,78.44-140.03,78.44-225.11C743.12,162.16,580.95,0,380.93,0
		C180.92,0,18.75,162.16,18.75,362.18c0,85.06,29.34,163.29,78.44,225.1L3.56,749.47c-9.91,14.73,2.19,34.82,20.23,32.26
		l127.35-18.26l47.7,118.99c6.11,16.16,28.62,18.43,37.51,3.08l95.01-164.55c16.21,2.22,32.76,3.37,49.58,3.37
		c16.82,0,33.37-1.15,49.58-3.37l95.01,164.55c8.88,15.33,31.41,13.12,37.51-3.08l47.69-118.99l127.36,18.26
		c18.04,2.56,30.13-17.53,20.23-32.26L664.68,587.29z M221.7,827.59l-38.01-94.82c-3.64-9.09-12.98-14.19-22.26-12.87L60.27,734.4
		l66.14-114.56c44.28,43.75,99.79,76.16,161.81,92.54L221.7,827.59z M380.93,680.52c-87.91,0-167.5-35.64-225.1-93.23
		c-57.61-57.61-93.24-137.2-93.24-225.11c0-175.81,142.53-318.34,318.34-318.34c175.82,0,318.34,142.52,318.34,318.34
		c0,87.91-35.64,167.5-93.23,225.11C548.44,644.89,468.84,680.52,380.93,680.52z M600.42,719.91c-9.28-1.33-18.62,3.78-22.26,12.87
		l-38,94.81l-66.52-115.21c62.02-16.38,117.53-48.8,161.82-92.54L701.6,734.4L600.42,719.91z"/>
</g>
</svg>
