<?xml version="1.0" encoding="utf-8"?>
<!-- Generator: Adobe Illustrator 26.1.0, SVG Export Plug-In . SVG Version: 6.00 Build 0)  -->
<svg version="1.1" id="Layer_1" xmlns="http://www.w3.org/2000/svg" xmlns:xlink="http://www.w3.org/1999/xlink" x="0px" y="0px"
	 viewBox="0 0 400 399.99" style="enable-background:new 0 0 400 399.99;" xml:space="preserve">
<style type="text/css">
	.st0{fill:#FFDC9A;}
	.st1{fill:#FFCA67;}
	.st2{fill:#FFA702;}
	.st3{fill-rule:evenodd;clip-rule:evenodd;fill:#FFDC9A;}
	.st4{fill-rule:evenodd;clip-rule:evenodd;fill:#FFCA67;}
	.st5{fill-rule:evenodd;clip-rule:evenodd;fill:#FFA702;}
</style>
<g>
	<path class="st2" d="M240.5,250.83c-2.46-1.66-5.79-1.02-7.45,1.39c-0.37,0.54-9.75,13.72-33.05,13.72
		c-23.3,0-32.68-13.13-33.05-13.72c-1.66-2.41-4.98-3.1-7.45-1.44c-2.46,1.6-3.11,4.93-1.45,7.39c0.49,0.75,12.65,18.48,41.95,18.48
		c29.3,0,41.46-17.73,41.95-18.48C243.55,255.76,242.91,252.44,240.5,250.83z"/>
	<path class="st2" d="M178.57,212.37c0-8.9-7.18-16.07-16.07-16.07c-8.89,0-16.07,7.17-16.07,16.07c0,8.89,7.18,16.07,16.07,16.07
		C171.39,228.44,178.57,221.26,178.57,212.37z"/>
	<path class="st2" d="M237.5,196.3c-8.89,0-16.07,7.17-16.07,16.07c0,8.89,7.18,16.07,16.07,16.07c8.89,0,16.07-7.18,16.07-16.07
		C253.57,203.47,246.39,196.3,237.5,196.3z"/>
	<path class="st2" d="M200,0C89.54,0,0,89.54,0,199.99c0,110.46,89.54,200,200,200c110.46,0,200-89.54,200-200
		C400,89.54,310.46,0,200,0z M300.93,215.85c0.59,3.27,0.85,6.53,0.85,9.91c0,42.91-45.58,77.68-101.78,77.68
		c-56.2,0-101.78-34.77-101.78-77.68c0-3.38,0.26-6.64,0.85-9.91c-9.91-3.91-16.93-13.61-16.93-24.91c0-14.79,12-26.79,26.79-26.79
		c7.12,0,13.55,2.79,18.38,7.29c18.37-14.36,43.98-23.3,72.37-23.36l14.84-44.52c0.96-2.89,3.16-5.14,5.94-6.26
		c2.79-1.13,5.9-0.97,8.52,0.37l34.88,17.41c2.89-2.78,6.8-4.5,11.14-4.5c8.84,0,16.07,7.18,16.07,16.07
		c0,8.9-7.23,16.08-16.07,16.08c-8.89,0-16.07-7.18-16.07-16.08c0-0.69,0.1-1.28,0.16-1.92l-34.55-17.31l-13.72,41.09
		c24.16,1.98,45.8,10.34,61.88,22.93c4.82-4.5,11.25-7.29,18.37-7.29c14.79,0,26.79,12,26.79,26.79
		C317.86,202.24,310.84,211.94,300.93,215.85z"/>
</g>
</svg>
