<?xml version="1.0" encoding="utf-8"?>
<!-- Generator: Adobe Illustrator 26.1.0, SVG Export Plug-In . SVG Version: 6.00 Build 0)  -->
<svg version="1.1" id="Layer_1" xmlns="http://www.w3.org/2000/svg" xmlns:xlink="http://www.w3.org/1999/xlink" x="0px" y="0px"
	 viewBox="0 0 400 400" style="enable-background:new 0 0 400 400;" xml:space="preserve">
<style type="text/css">
	.st0{fill:#FFDC9A;}
	.st1{fill:#FFCA67;}
	.st2{fill:#FFA702;}
	.st3{fill-rule:evenodd;clip-rule:evenodd;fill:#FFDC9A;}
	.st4{fill-rule:evenodd;clip-rule:evenodd;fill:#FFCA67;}
	.st5{fill-rule:evenodd;clip-rule:evenodd;fill:#FFA702;}
</style>
<path class="st2" d="M200,0C89.54,0,0,89.54,0,200s89.54,200,200,200c110.46,0,200-89.54,200-200S310.46,0,200,0z M295.37,130.06
	c-0.58,8.09-5.2,36.42-9.83,67.05c-6.94,43.35-14.45,90.75-14.45,90.75s-1.16,13.29-10.98,15.61c-9.83,2.31-26.01-8.09-28.9-10.41
	c-2.31-1.73-43.35-27.74-58.38-40.46c-4.05-3.47-8.67-10.4,0.58-18.5c20.81-19.07,45.66-42.77,60.69-57.8
	c6.94-6.94,13.87-23.12-15.03-3.47c-41.04,28.32-81.5,54.91-81.5,54.91s-9.25,5.78-26.59,0.58c-17.34-5.2-37.57-12.14-37.57-12.14
	s-13.87-8.67,9.83-17.92c0,0,100-41.04,134.68-55.49c13.29-5.78,58.38-24.28,58.38-24.28S297.11,110.41,295.37,130.06z"/>
</svg>
