<?xml version="1.0" encoding="utf-8"?>
<!-- Generator: Adobe Illustrator 26.1.0, SVG Export Plug-In . SVG Version: 6.00 Build 0)  -->
<svg version="1.1" id="Layer_1" xmlns="http://www.w3.org/2000/svg" xmlns:xlink="http://www.w3.org/1999/xlink" x="0px" y="0px"
	 viewBox="0 0 400 400" style="enable-background:new 0 0 400 400;" xml:space="preserve">
<style type="text/css">
	.st0{fill:#FFDC9A;}
	.st1{fill:#FFCA67;}
	.st2{fill:#FFA702;}
	.st3{fill-rule:evenodd;clip-rule:evenodd;fill:#FFDC9A;}
	.st4{fill-rule:evenodd;clip-rule:evenodd;fill:#FFCA67;}
	.st5{fill-rule:evenodd;clip-rule:evenodd;fill:#FFA702;}
</style>
<g>
	<polygon class="st2" points="126.67,117.89 244.23,282.11 273.33,282.11 155.77,117.89 	"/>
	<path class="st2" d="M200,0L200,0C89.54,0,0,89.54,0,200v0c0,110.46,89.54,200,200,200h0c110.46,0,200-89.54,200-200v0
		C400,89.54,310.46,0,200,0z M232.87,304.21l-51.47-71.9l-67.22,71.9H83.66l84.5-90.39L83.66,95.79h83.48l48.31,67.47l63.08-67.47
		h30.52l-80.37,85.96l87.67,122.46H232.87z"/>
</g>
</svg>
